<svg width="23" height="14" viewBox="0 0 23 14" fill="none" xmlns="http://www.w3.org/2000/svg">
<g clip-path="url(#clip0_117_90)">
<path d="M11.3494 14C18.0536 14 22.6903 8.66669 22.6903 7.00414C22.6903 5.33335 18.0452 0.00823975 11.3494 0.00823975C4.7289 0.00823975 0 5.33335 0 7.00414C0 8.66669 4.7289 14 11.3494 14ZM11.3494 11.5885C8.73799 11.5885 6.66231 9.5062 6.66231 7.00414C6.66231 4.43623 8.73799 2.41976 11.3494 2.41976C13.9356 2.41976 16.0281 4.43623 16.0281 7.00414C16.0281 9.5062 13.9356 11.5885 11.3494 11.5885ZM11.3494 8.65843C12.2784 8.65843 13.0484 7.90949 13.0484 7.00414C13.0484 6.09055 12.2784 5.34158 11.3494 5.34158C10.4119 5.34158 9.64194 6.09055 9.64194 7.00414C9.64194 7.90949 10.4119 8.65843 11.3494 8.65843Z" fill="#007AFF"/>
</g>
<defs>
<clipPath id="clip0_117_90">
<rect width="23" height="14" fill="white"/>
</clipPath>
</defs>
</svg>
